<svg width="152" height="127" viewBox="0 0 152 127" fill="none" xmlns="http://www.w3.org/2000/svg">
<path d="M115.354 2.48184C115.805 2.93309 115.983 3.19434 115.888 3.22996C115.663 3.30121 116.09 3.90684 117.337 5.28434C119.522 7.70684 120.674 9.19121 122.562 11.9937C123.239 13.0031 124.177 14.2856 124.64 14.8437C125.911 16.3756 128.654 18.8812 130.138 19.8787C130.768 20.3062 131.195 20.4368 131.017 20.1518C130.91 19.9856 131.338 20.2468 132.442 21.0425C132.881 21.3512 133.238 21.6006 133.238 21.565C133.238 21.5412 133.083 21.1731 132.881 20.7456C132.311 19.4868 131.611 17.5631 130.969 15.4493C130.637 14.3687 130.198 13.0743 130.008 12.5875C128.571 9.07246 126.255 7.06559 120.353 4.20371C118.275 3.20621 114.998 1.78121 114.76 1.78121C114.701 1.78121 114.974 2.08996 115.354 2.48184Z" fill="url(#paint0_linear_135_150)"/>
<path d="M37.7641 2.93344C36.1016 3.62219 35.2585 3.91906 35.3297 3.78844C35.591 3.37281 29.7485 6.27031 27.9435 7.45781C25.5447 9.04906 23.9297 10.7828 23.0629 12.7184C22.291 14.4522 20.391 20.3659 20.486 20.7459C20.5216 20.9003 20.6047 20.9953 20.6641 20.9597C20.8422 20.8528 20.8066 21.0666 20.5454 21.6841C20.4147 21.9928 20.3197 22.2659 20.3435 22.2897C20.4147 22.3609 23.1104 20.3184 24.6422 19.0359C26.0672 17.8484 27.7179 16.2097 28.5254 15.2003C28.751 14.9034 29.5704 13.7278 30.3422 12.5878C32.5629 9.29844 33.7385 7.84969 36.8972 4.53656C37.966 3.42031 38.8329 2.49406 38.8091 2.50594C38.7854 2.50594 38.3222 2.70781 37.7641 2.93344Z" fill="url(#paint1_linear_135_150)"/>
<path d="M130.033 9.33395C130.033 9.36958 130.235 9.70208 130.484 10.0702C131.161 11.0677 131.197 11.139 130.923 10.9252C130.46 10.5571 130.852 11.5071 131.802 13.1102C133.382 15.7702 134.094 17.3496 134.593 19.2971C134.913 20.5677 135.65 25.5908 135.59 26.0896C135.555 26.3508 135.436 26.2321 134.557 25.1277C133.203 23.4058 131.47 21.7908 129.831 20.7102C129.095 20.2233 127.883 19.4277 127.135 18.9408C125.556 17.9077 124.048 16.5302 123.074 15.224C122.694 14.7252 122.338 14.2621 122.29 14.2027C122.207 14.0958 122.243 14.7133 122.373 15.7821C122.421 16.1383 122.409 16.1621 122.267 15.9721C121.827 15.3783 121.827 16.8627 122.255 18.359C123.418 22.3371 125.105 24.2727 130.033 27.2533C132.408 28.6902 133.488 29.4621 134.64 30.5783C135.887 31.7658 136.576 32.6327 137.502 34.1646C138.298 35.4827 138.702 35.8983 138.832 35.5421C138.892 35.3639 139.307 36.2071 139.758 37.4421C139.996 38.0833 140.293 32.7396 140.305 27.7877C140.305 23.1921 140.21 22.0046 139.64 19.7721C138.749 16.2927 136.861 13.7277 133.453 11.3883C132.325 10.6165 130.033 9.23895 130.033 9.33395Z" fill="url(#paint2_linear_135_150)"/>
<path d="M22.0995 10.8659C21.3513 11.2934 20.722 11.6378 20.6863 11.6378C20.6626 11.6378 20.6863 11.5784 20.722 11.5071C20.9001 11.2221 19.3326 12.1484 18.347 12.9203C15.5326 15.0934 13.9057 17.4921 13.1338 20.6153C12.742 22.1709 12.6232 23.0734 12.457 25.4128C12.2551 28.429 12.5163 35.1859 12.8845 36.0409C13.0626 36.4803 13.2882 36.5871 13.312 36.2428C13.3476 35.7915 13.5138 36.8009 13.5257 37.5371C13.5257 37.9646 13.5732 38.3565 13.6207 38.3921C13.6563 38.4396 13.8107 38.1309 13.9651 37.7153C14.3095 36.7178 15.212 34.9246 15.8176 34.0221C17.2901 31.849 19.1307 30.2103 22.1707 28.3815C26.0301 26.0778 27.6213 24.7715 28.8682 22.8715C29.9726 21.1971 30.7682 18.9053 31.1126 16.3878C31.1838 15.8296 31.267 15.2834 31.2907 15.1646C31.3501 14.8203 31.1838 14.939 30.8513 15.4734C30.5663 15.9128 29.5213 17.029 29.7351 16.649C29.9963 16.2096 29.2007 16.7678 27.9182 17.9553C27.3838 18.4659 26.3863 19.2259 25.7213 19.6653C25.0682 20.0928 23.8807 20.8528 23.097 21.3634C22.2895 21.874 21.2207 22.7171 20.627 23.2753C19.6532 24.1896 17.4801 26.6478 17.1238 27.2296C16.9695 27.4671 16.9695 27.4553 17.0288 27.0753C17.0763 26.8496 17.2901 25.3653 17.5157 23.7978C17.7532 22.2184 18.0501 20.5084 18.1807 19.9978C18.822 17.5396 20.1757 14.9034 22.4913 11.6021C23.4888 10.1771 23.5482 10.094 23.4888 10.094C23.4651 10.094 22.8476 10.4384 22.0995 10.8659Z" fill="url(#paint3_linear_135_150)"/>
<path d="M141.539 20.0929C141.883 20.8529 142.145 21.8267 141.919 21.5061C141.67 21.1379 141.646 22.0167 141.848 23.5011C142.168 25.7336 142.121 27.7761 141.622 32.1817C141.385 34.2361 141.112 37.1454 141.017 38.6417C140.91 40.1498 140.815 41.3848 140.803 41.4086C140.779 41.4204 140.589 41.0286 140.375 40.5179C139.853 39.2473 138.938 37.8461 138.06 36.9911C137.656 36.5992 136.421 35.6611 135.317 34.9129C132.265 32.8348 130.875 31.3267 129.379 28.4411L128.833 27.3723L128.904 28.2036C128.94 28.6548 128.999 29.2723 129.035 29.5692C129.058 29.8661 129.058 30.0323 129.011 29.9492C128.892 29.6879 128.738 29.7948 128.667 30.1867C128.488 31.1129 129.248 33.8917 130.27 36.0529C131.22 38.0717 132.265 39.5442 135.542 43.4154C137.846 46.1586 139.212 48.4623 140.304 51.4786C140.922 53.1886 140.981 53.3311 141.278 53.6161C141.468 53.8061 141.48 53.8061 141.551 53.6042C141.598 53.4617 141.729 53.7942 141.919 54.5542L142.204 55.7061L144.128 48.0111C146.123 40.0667 146.527 38.2379 146.823 35.9579C147.251 32.7279 147.18 30.4598 146.598 28.1323C145.873 25.2348 144.342 22.5867 141.883 19.9742C141.563 19.6417 141.278 19.3567 141.254 19.3567C141.23 19.3567 141.361 19.6892 141.539 20.0929Z" fill="url(#paint4_linear_135_150)"/>
<path d="M11.5662 20.8053C11.2455 21.1496 10.7587 21.6959 10.4737 22.0165C10.1887 22.349 9.99865 22.5153 10.0462 22.4084C10.1768 22.064 9.8799 22.1828 9.36928 22.6934C8.75178 23.3109 7.82553 24.7359 7.24365 25.9471C5.43865 29.7471 5.24865 33.7372 6.54303 40.1972C6.8874 41.8834 9.03678 50.564 9.70178 52.9272C10.0224 54.079 10.4262 54.7322 10.5687 54.3284C10.6162 54.1859 10.723 54.3997 10.9012 54.9934C11.0437 55.4803 11.1624 55.9672 11.1624 56.074C11.1624 56.1809 11.2218 56.3115 11.2812 56.3472C11.3524 56.3828 11.3999 56.3234 11.3999 56.2047C11.3999 55.8603 12.0768 53.3072 12.4805 52.1672C13.5374 49.1272 14.9387 46.8709 18.038 43.249C20.8524 39.9359 22.0755 38.0834 23.0255 35.6847C23.7855 33.7609 24.403 31.1128 24.6405 28.7971L24.7118 28.0846L24.2487 28.9753C23.7499 29.9371 23.1918 30.8753 23.0968 30.8753C23.073 30.8753 23.073 30.7921 23.1205 30.6853C23.2868 30.2578 22.6693 30.7803 21.8262 31.8015C21.3512 32.3715 20.6505 33.1434 20.2468 33.5353C19.6055 34.1647 19.083 34.5565 16.4705 36.3853C15.1524 37.3115 14.1905 38.1903 13.7274 38.879C13.1455 39.7697 12.0174 41.8715 11.9699 42.1922C11.9462 42.3347 11.8868 41.8122 11.8393 41.0284C11.6374 37.5372 11.4712 35.7322 11.1505 33.0128C10.6993 29.2959 10.5924 26.2915 10.8537 24.6765C11.0555 23.4415 11.6255 21.5059 12.0174 20.7459C12.148 20.4846 12.2312 20.259 12.1955 20.2353C12.1718 20.2115 11.8868 20.4609 11.5662 20.8053Z" fill="url(#paint5_linear_135_150)"/>
<path d="M149.15 39.2353C149.15 39.6984 148.758 41.1115 148.675 40.969C148.521 40.7197 148.129 41.2303 147.927 41.9309C147.832 42.2872 147.512 43.5934 147.203 44.8284C146.253 48.7353 145.517 50.8728 143.997 54.1503C142.678 56.9528 141.313 60.3847 141.313 60.8597C141.313 61.3584 141.194 60.8834 141.016 59.7197C140.422 55.7534 138.855 52.0959 134.508 44.5909C133.796 43.344 133.155 42.2753 133.095 42.2159C133.024 42.1447 133 42.4534 133.012 43.0472C133.036 43.724 133 43.9972 132.893 43.9972C132.478 43.9972 132.418 45.1847 132.703 47.6784C133.238 52.2622 133.915 55.314 135.494 60.1472C137.014 64.7903 137.192 65.8353 137.18 70.0509C137.168 73.079 137.228 73.5897 137.584 73.459C137.727 73.4115 137.738 73.5184 137.679 74.0765L137.62 74.7534L138.593 73.744C145.374 66.7022 149.198 60.5984 150.504 54.7203C150.967 52.6184 151.086 51.1578 151.015 48.6284C150.943 46.3365 150.789 45.149 150.278 42.8097C149.756 40.4584 149.15 38.5347 149.15 39.2353Z" fill="url(#paint6_linear_135_150)"/>
<path d="M3.8719 40.9927C3.6344 41.7527 3.51565 42.0258 3.45627 41.8833C3.38502 41.6696 3.37315 41.6696 3.18315 41.8833C2.8744 42.2158 2.66065 42.8096 2.3994 44.0564C0.7369 51.8108 2.09065 58.5914 6.68627 65.4314C9.20377 69.1721 13.6688 74.3377 14.405 74.3377C14.4644 74.3377 14.4644 74.2664 14.4169 74.1833C14.3694 74.1121 14.6663 74.3614 15.0581 74.7414C15.4619 75.1333 15.8063 75.4302 15.83 75.3946C15.8538 75.3708 15.8063 74.6464 15.7231 73.8033C15.5331 71.8914 15.5213 68.7683 15.6756 67.2364C15.8538 65.6096 16.2575 64.0064 17.2906 60.8596C18.6206 56.7983 19.2263 54.3283 19.7606 50.7658C20.0813 48.6164 20.6156 43.0114 20.5088 42.9046C20.485 42.8808 20.1763 43.3558 19.8319 43.9377C19.4756 44.5314 19.1669 44.9589 19.1194 44.8877C18.8581 44.4602 17.9675 45.7189 16.1388 49.1033C13.5856 53.8296 12.5881 56.3352 11.8638 59.8502C11.6619 60.8002 11.4838 61.5839 11.4719 61.5958C11.46 61.6077 11.2938 61.1564 11.1156 60.5864C10.605 59.0071 9.98752 57.4989 8.87127 55.1477C7.60065 52.4639 6.82877 50.3739 6.11627 47.8208C5.5344 45.6833 4.73877 42.2277 4.50127 40.7789C4.41815 40.2921 4.32315 39.9002 4.27565 39.9002C4.24002 39.9002 4.0619 40.3989 3.8719 40.9927Z" fill="url(#paint7_linear_135_150)"/>
<path d="M133.083 60.5391C132.846 60.9785 132.644 61.2635 132.644 61.1803C132.644 60.8953 132.181 61.2635 131.92 61.7622C131.599 62.3916 131.041 64.5885 130.815 66.0847C130.554 67.8066 130.423 69.1366 130.15 72.7347C129.58 80.3703 129.046 83.5172 127.419 89.0153C127.039 90.2978 126.991 91.0935 127.324 90.8916C127.455 90.8085 127.443 90.856 127.217 91.6635C127.146 91.9603 127.146 91.9603 127.846 91.5685C129.378 90.7016 133.641 87.9822 135.553 86.6403C142.108 82.0447 145.849 78.1497 148.093 73.566C149.685 70.3003 150.456 66.8328 150.456 62.9378V61.216L149.898 62.261C149.59 62.831 149.305 63.2347 149.269 63.1753C149.091 62.8903 148.521 63.6266 147.428 65.5266C144.923 69.8372 143.616 71.4166 140.006 74.4566C138.866 75.4185 137.738 76.416 137.501 76.6653C136.871 77.3541 135.197 79.3491 135.031 79.6222L134.888 79.8597L134.948 79.6222C135.458 77.6866 135.625 73.3285 135.328 70.4191C135.019 67.5335 133.843 60.3253 133.606 59.886C133.558 59.791 133.356 60.0403 133.083 60.5391Z" fill="url(#paint8_linear_135_150)"/>
<path d="M19.8324 60.6697C19.8324 61.1329 19.5474 62.1066 19.4643 61.9641C19.2624 61.6435 18.8943 62.2372 18.6568 63.2822C18.0868 65.7285 17.3981 70.8822 17.2793 73.6254C17.1962 75.2166 17.2318 75.9529 17.5762 79.4441C17.6237 79.931 17.6474 80.3466 17.6474 80.3585C17.6356 80.3704 17.3149 79.9429 16.9231 79.4204C15.8187 77.9241 14.8212 76.9266 12.8262 75.2879C8.94307 72.1054 6.92432 69.481 4.10994 64.0066C3.18369 62.2016 3.11244 62.1066 3.04119 62.4629C3.00557 62.6766 2.96994 63.1516 2.95807 63.5197C2.95807 63.9235 2.92244 64.1016 2.86307 63.971C2.79182 63.7572 2.76807 63.7572 2.61369 63.9472C2.22182 64.4222 2.35244 66.7497 2.92244 69.3385C4.48994 76.4041 9.06182 81.9497 18.5499 88.3266C21.6968 90.4285 23.8106 91.6872 24.2618 91.7229C24.4756 91.7466 25.0337 91.9722 25.4849 92.2454C25.9362 92.5066 26.3162 92.7085 26.3281 92.7085C26.3399 92.6966 26.0312 91.7347 25.6393 90.5829C23.9649 85.6072 23.2168 81.4629 22.6824 74.3379C22.1124 66.7141 21.6493 64.0422 20.4262 61.4179C19.9631 60.4204 19.8324 60.266 19.8324 60.6697Z" fill="url(#paint9_linear_135_150)"/>
<path d="M127.741 75.6438C127.088 76.487 126.779 76.8076 126.648 76.7482C126.268 76.6057 124.808 78.5413 123.038 81.5457C121.483 84.1938 120.758 85.9157 119.689 89.5376C118.858 92.3401 118.324 93.8363 117.659 95.1782C116.946 96.5913 115.771 98.5151 114.678 100.011C113.039 102.291 112.909 102.505 112.968 102.826C113.004 103.016 112.944 103.253 112.79 103.455C112.671 103.645 112.612 103.788 112.683 103.788C112.861 103.788 117.813 102.588 120.236 101.959C128.774 99.7263 134.023 97.767 137.324 95.5701C138.464 94.8101 139.972 93.4207 140.732 92.4113C141.528 91.3545 142.418 89.5613 142.976 87.9107C143.463 86.4263 145.043 80.5245 144.971 80.4413C144.936 80.4176 144.615 80.8688 144.247 81.4388C143.523 82.5432 142.929 83.3151 143.048 82.9707C143.261 82.3651 142.383 83.2082 140.934 85.0251C138.108 88.552 136.172 89.9295 131.22 91.9126C128.928 92.8388 127.954 93.2901 126.529 94.1213C125.876 94.4895 125.057 94.9526 124.701 95.1426C124.344 95.3207 123.976 95.5463 123.893 95.6176C123.798 95.7007 124 95.202 124.356 94.5132C125.544 92.2095 125.888 90.7845 126.529 85.4407C127.088 80.762 127.622 77.9832 128.536 75.0145C128.631 74.7057 128.703 74.4563 128.679 74.4563C128.667 74.4563 128.239 74.9907 127.741 75.6438Z" fill="url(#paint10_linear_135_150)"/>
<path d="M24.8197 75.2521C24.8197 75.2996 24.9622 75.7983 25.1166 76.3446C25.4253 77.4014 25.4966 77.8646 25.3066 77.5558C25.2235 77.4252 25.176 77.4371 25.0691 77.6389C24.9741 77.8171 24.986 78.1258 25.1047 78.8146C25.7222 82.2464 25.9241 83.5171 26.2447 86.2127C26.8385 91.1171 27.0522 92.1621 27.9191 94.2758C28.1803 94.9052 28.4416 95.6177 28.4891 95.8671L28.596 96.3183L28.2872 96.1046C26.3753 94.8458 24.2616 93.7652 21.4353 92.6252C17.4572 91.0339 15.9135 90.1077 13.8947 88.1127C12.5053 86.7471 11.1516 85.0489 9.65534 82.7927C9.02596 81.8664 8.50346 81.1064 8.49159 81.1064C8.46784 81.1064 8.57471 81.6052 8.72909 82.1989C8.88346 82.8046 9.03784 83.4577 9.07346 83.6596L9.14471 84.0158L8.97846 83.7189L8.81221 83.4221L8.72909 83.7546C8.59846 84.2652 8.75284 85.1083 9.32284 87.1152C10.3797 90.7964 11.2822 92.4946 13.1822 94.4064C15.0347 96.2708 17.2672 97.6364 20.8416 99.0733C22.5635 99.7739 26.4703 101.08 26.601 100.997C26.6603 100.961 26.7197 100.985 26.7435 101.045C26.7553 101.104 26.9453 101.175 27.1353 101.199C27.3372 101.223 27.5153 101.27 27.551 101.318C27.5866 101.353 27.7766 101.413 27.9666 101.436C28.1685 101.46 28.3466 101.508 28.3822 101.555C28.4178 101.591 28.6078 101.65 28.7978 101.674C28.9997 101.698 29.1778 101.745 29.2253 101.793C29.261 101.84 29.4391 101.9 29.641 101.923C29.831 101.947 30.0566 101.995 30.1278 102.042C30.1991 102.09 30.4128 102.149 30.6028 102.173C30.781 102.185 32.5622 102.612 34.5572 103.111C37.8347 103.918 40.8747 104.619 40.9341 104.571C40.946 104.56 40.5541 104.049 40.0672 103.431C39.5685 102.814 38.7253 101.686 38.191 100.938C35.5072 97.1971 34.4266 95.0121 33.251 90.9033C32.1466 86.9846 31.2085 84.7639 29.4866 81.8902C28.2516 79.8477 24.8197 74.9433 24.8197 75.2521Z" fill="url(#paint11_linear_135_150)"/>
<path d="M118.263 89.9416C117.943 90.2384 115.734 91.7228 115.829 91.5803C116.351 90.7372 112.1 93.7891 108.834 96.5916C108.383 96.9834 106.887 98.4084 105.509 99.7503C102.268 102.933 101.757 103.253 96.4131 105.343C95.2375 105.807 94.3113 106.222 94.335 106.27C94.3706 106.317 94.1331 106.46 93.8006 106.578C93.48 106.709 93.2188 106.852 93.2188 106.887C93.2188 106.935 93.3613 107.03 93.5513 107.089C93.7294 107.16 93.8006 107.22 93.7175 107.22C93.6344 107.232 93.5988 107.279 93.6344 107.35C93.67 107.41 93.6344 107.469 93.5513 107.469C93.4681 107.481 93.5513 107.564 93.7531 107.671C93.9431 107.778 94.5369 107.908 95.0594 107.956C95.5819 108.015 96.5319 108.193 97.1731 108.348C97.8144 108.514 98.4319 108.609 98.5388 108.573C98.6694 108.514 98.6931 108.538 98.6219 108.657C98.5506 108.775 98.5981 108.787 98.8475 108.728C99.0138 108.692 99.1563 108.692 99.1563 108.752C99.1563 108.799 99.3581 108.858 99.5956 108.858C99.845 108.87 100.059 108.93 100.083 109.001C100.106 109.072 100.166 109.108 100.225 109.072C100.284 109.037 100.985 109.167 101.793 109.357C108.217 110.901 113.644 111.459 117.503 110.972C119.795 110.687 121.268 110.26 123.203 109.31C125.602 108.122 127.407 106.567 132.169 101.543C133.38 100.273 134.306 99.2634 134.247 99.2872C134.176 99.3109 133.356 99.8453 132.406 100.475C130.399 101.805 129.426 102.375 129.663 102.078C129.758 101.971 128.844 102.363 127.644 102.957C126.445 103.538 125.02 104.18 124.486 104.37C123.951 104.548 123.548 104.75 123.595 104.797C123.643 104.857 123.619 104.857 123.548 104.821C123.464 104.773 123.227 104.809 123.013 104.904C121.921 105.355 120.472 105.474 114.713 105.581C111.613 105.64 108.87 105.723 108.633 105.759C108.383 105.795 107.92 105.771 107.588 105.688L106.982 105.545L107.789 105.058C109.44 104.073 110.497 103.158 111.542 101.805C112.373 100.724 112.765 100.047 114.819 96.2591C115.876 94.3116 117.147 92.0791 117.634 91.2834C118.489 89.9178 118.631 89.5972 118.263 89.9416Z" fill="url(#paint12_linear_135_150)"/>
<path d="M35.0313 90.6541C35.0313 90.6897 35.2569 91.0816 35.5182 91.521C35.7913 91.9722 36.0407 92.376 36.0763 92.4472C36.1119 92.5066 36.0525 92.4947 35.9457 92.3997C35.5182 92.0554 35.7438 92.8629 36.4444 94.2047C38.2969 97.7554 39.7694 100.403 40.5532 101.591C41.3844 102.85 41.9188 103.408 44.1869 105.486C44.7569 105.997 44.9113 106.198 44.7807 106.27C44.65 106.353 44.65 106.388 44.7807 106.448C44.8757 106.483 44.5194 106.483 43.9969 106.448C43.4744 106.412 40.6482 106.329 37.7032 106.282C32.0032 106.175 31.4213 106.127 29.3313 105.498C26.79 104.726 23.6788 103.099 20.3894 100.795C19.7482 100.356 19.19 99.9879 19.1425 99.9879C19.1069 99.9879 19.57 100.51 20.1875 101.14C21.4582 102.446 22.2775 103.36 21.8857 103.028C21.5888 102.778 21.5413 102.873 21.7669 103.277C22.0519 103.8 23.6907 105.605 24.8069 106.626C26.3269 108.027 27.9063 109.203 29.1888 109.88C30.3763 110.509 31.7894 111.067 31.9438 110.972C31.9913 110.937 32.0625 110.96 32.0863 111.02C32.0982 111.091 32.3119 111.162 32.5375 111.186C32.7632 111.222 33.4875 111.352 34.1407 111.495C39.1875 112.54 46.1344 111.72 56.5844 108.835C58.6032 108.265 60.1707 107.79 60.2657 107.683C60.3013 107.659 59.8619 107.457 59.28 107.232C54.6013 105.474 51.5494 104.144 50.1719 103.253C49.8513 103.052 48.4619 101.757 47.0844 100.38C43.9494 97.2566 41.2419 95.0004 36.8125 91.8535C35.9932 91.2835 35.2569 90.7491 35.1857 90.6897C35.1025 90.6304 35.0313 90.6066 35.0313 90.6541Z" fill="url(#paint13_linear_135_150)"/>
<path d="M83.8973 105.711C82.686 105.783 80.4891 106.163 79.8241 106.412C79.6698 106.471 79.5035 106.495 79.4441 106.46C79.3254 106.388 77.6154 106.946 76.3804 107.445L75.5135 107.801L73.8866 107.338C70.2291 106.281 67.4623 106.151 64.4223 106.887C63.8998 107.018 63.2823 107.148 63.0566 107.172C62.831 107.208 62.1898 107.398 61.6316 107.6C60.6579 107.956 60.3135 108.051 58.4966 108.466C57.9741 108.585 57.6179 108.74 57.511 108.894C57.1785 109.369 54.5066 110.64 52.1079 111.459C51.431 111.685 50.8016 111.91 50.7066 111.946C50.6116 111.981 50.4573 112.005 50.3623 111.993C50.2673 111.981 50.2435 112.017 50.3029 112.112C50.3623 112.219 50.3266 112.231 50.1723 112.183C50.0654 112.136 49.8991 112.148 49.8279 112.207C49.7566 112.266 49.246 112.421 48.6879 112.551C44.496 113.549 38.7485 113.668 32.7516 112.896C32.1104 112.813 31.5879 112.789 31.5879 112.836C31.5879 112.884 31.6235 112.931 31.6829 112.931C31.7304 112.931 32.0035 113.157 32.3004 113.418C32.5973 113.68 32.7516 113.858 32.6566 113.822C32.5616 113.775 32.6923 113.953 32.9535 114.214C34.4023 115.686 41.1948 119.225 42.9285 119.403C43.1304 119.427 43.736 119.558 44.2941 119.688C46.0279 120.092 47.2035 120.211 48.8541 120.14C52.3573 119.985 55.1598 118.798 59.5891 115.591C64.4698 112.053 66.7854 110.746 68.8279 110.366C69.1723 110.307 69.2316 110.331 69.2316 110.521C69.2316 110.889 68.626 111.364 65.3723 113.549C61.0854 116.423 56.3948 119.878 55.991 120.448C55.896 120.591 55.8129 120.876 55.8129 121.078C55.8129 121.731 56.9529 123.025 57.5348 123.025C57.701 123.025 57.9029 123.156 58.0454 123.346L58.2829 123.666L60.2898 121.707C62.736 119.332 64.6123 117.658 66.8091 115.9C69.481 113.763 72.8773 111.59 74.6823 110.841L75.371 110.568L76.2498 110.865C77.6629 111.34 80.3229 112.718 82.1041 113.881C85.2985 115.983 87.7448 117.978 91.7348 121.778C93.6585 123.607 94.0741 123.928 94.2998 123.785C94.371 123.75 94.5966 123.88 94.8104 124.082L95.1904 124.45L96.3541 123.073C96.9954 122.313 97.4704 121.66 97.4229 121.6C97.3635 121.553 96.5679 120.935 95.6535 120.235C90.3691 116.173 84.9185 112.516 81.071 110.45C80.4773 110.117 79.8954 109.785 79.8004 109.701C79.7054 109.618 79.646 109.559 79.6698 109.571C79.6935 109.595 79.7885 109.511 79.8598 109.405C79.9904 109.238 80.2279 109.203 81.4154 109.203C82.781 109.215 84.1704 109.393 84.301 109.583C84.3366 109.63 84.6098 109.749 84.9066 109.832C86.4385 110.271 88.5641 111.506 91.7466 113.775C94.4423 115.722 96.0454 116.779 97.2566 117.42C98.4085 118.038 100.225 118.774 100.427 118.703C100.51 118.667 100.582 118.691 100.582 118.762C100.582 118.833 100.629 118.857 100.677 118.821C100.736 118.786 101.069 118.833 101.425 118.928C103.289 119.415 105.783 119.498 107.778 119.166C110.723 118.655 114.167 117.206 117.8 114.926C118.952 114.202 121.969 112.076 121.921 112.029C121.909 112.005 121.517 112.041 121.066 112.1C116.007 112.73 110.711 112.765 107.03 112.219C103.064 111.613 100.024 110.64 95.0004 108.36C90.191 106.175 87.3529 105.498 83.8973 105.711Z" fill="url(#paint14_linear_135_150)"/>
<path d="M75.6275 34.2087C75.5587 34.2284 74.9195 34.253 74.2016 34.253C73.4837 34.2579 72.5691 34.2825 72.161 34.307C71.7578 34.3365 71.158 34.3709 70.8334 34.3857C70.0959 34.4201 67.5538 34.6314 66.7032 34.7297C66.3541 34.769 65.8771 34.8181 65.646 34.8427C65.4149 34.8673 65.0855 34.9115 64.9085 34.941C64.5741 34.9951 64.0627 35.0737 63.5563 35.1425C63.0597 35.2162 61.7419 35.4423 61.147 35.5553C60.1537 35.747 58.4328 36.1352 58.2164 36.2188C58.123 36.2532 58.0148 36.2138 57.6559 36.0222C56.938 35.6438 56.1808 35.3882 55.1974 35.2113C54.4894 35.0786 52.557 35.0786 52.0259 35.2064C50.7574 35.516 49.9067 35.9779 49.1446 36.779C48.2595 37.7029 47.9055 38.5875 47.8613 39.9832C47.8219 41.2315 48.0825 42.3913 48.7611 43.9246C49.7887 46.259 51.549 48.7015 54.3664 51.7042C55.5711 52.9869 56.2054 53.6061 58.1624 55.4048C58.3049 55.5325 58.418 55.6702 58.418 55.7095C58.418 55.7488 58.3541 55.8962 58.2754 56.0387C57.8723 56.7906 57.8673 57.7686 58.2607 58.5107C58.4525 58.8645 59.0228 59.415 59.3769 59.587C60.316 60.044 61.3731 59.9212 62.1943 59.2724C62.4844 59.0415 62.8482 58.5156 62.9761 58.152C63.0253 58.0143 63.0793 57.8964 63.1039 57.8964C63.1285 57.8964 63.2023 58.034 63.276 58.206C63.5022 58.7368 64.4414 60.6043 64.7757 61.1694C67.1457 65.2484 70.2729 68.2364 74.1868 70.1432C74.6834 70.3889 75.0866 70.6052 75.0866 70.6248C75.0866 70.6494 75.0375 70.6838 74.9785 70.6985C74.9145 70.7182 74.7916 70.8018 74.708 70.8853C74.4081 71.1654 74.531 71.4554 75.0522 71.7011C75.2194 71.7797 75.4751 71.8682 75.6177 71.9026C75.8979 71.9665 75.9373 72.0451 75.7553 72.168C75.5882 72.2761 75.1309 72.8511 74.949 73.1853C74.7129 73.6128 74.5113 74.2812 74.4523 74.8316C74.295 76.2912 74.89 77.7852 75.9225 78.5518C76.3601 78.8713 76.37 78.8811 76.3405 78.9303C76.3257 78.9548 76.2077 78.9892 76.0799 79.004C75.2194 79.1219 74.5458 79.4807 74.5458 79.8149C74.5458 80.0753 74.9637 80.3604 75.5587 80.5078C75.6816 80.5422 75.7947 80.5963 75.8094 80.6356C75.8291 80.6798 75.7258 80.8223 75.5488 80.9992C74.9588 81.5988 74.0049 82.1197 73.0707 82.3458C71.8857 82.6308 70.5433 83.0633 69.7025 83.4319C69.6239 83.4663 69.3583 83.5744 69.1125 83.6776C68.6306 83.8742 67.067 84.631 66.6294 84.8767C64.6774 85.9825 63.63 86.8917 63.3694 87.7222C63.2514 88.1006 63.2465 89.5504 63.3694 89.6683C63.6792 89.9829 66.1574 90.7151 67.957 91.0247C68.665 91.1476 69.1567 91.2262 69.6288 91.2901C69.914 91.3294 70.3909 91.3933 70.6859 91.4375C74.6539 91.988 78.2581 92.101 81.8967 91.7766C83.3914 91.6489 84.0208 91.5702 85.8303 91.2901C86.0761 91.2508 86.4301 91.1967 86.617 91.1672C86.8087 91.1427 87.0743 91.0935 87.207 91.069C87.3447 91.0444 87.684 90.9756 87.9692 90.9215C89.5967 90.6119 91.6471 89.9878 91.9617 89.7027C92.0404 89.6388 92.0503 89.5258 92.0503 88.7346C92.0503 88.1842 92.0306 87.7763 91.9912 87.6731C91.7159 86.8671 90.5801 85.9039 88.6084 84.8129C87.6987 84.3067 86.8284 83.9086 85.1911 83.2451C84.8026 83.083 83.1161 82.5424 82.708 82.4441C81.3951 82.1345 80.6478 81.7659 79.9299 81.0877C79.5218 80.6945 79.4726 80.5766 79.7234 80.5275C80.2003 80.4292 80.7166 80.1343 80.7707 79.9181C80.7903 79.8542 80.7707 79.7362 80.7264 79.6478C80.6084 79.3971 79.9545 79.1121 79.2562 79.004C79.0596 78.9745 79.0006 78.8565 79.1579 78.7976C79.4087 78.7042 80.0135 78.1587 80.2642 77.7999C80.7805 77.0677 81.0116 76.2961 81.0116 75.3181C81.0116 74.6252 80.9329 74.1976 80.7068 73.6226C80.5347 73.1902 80.1069 72.5513 79.802 72.2761C79.5168 72.0205 79.5119 71.9272 79.7922 71.8731C80.0872 71.819 80.5691 71.5831 80.6822 71.4357C80.869 71.1998 80.8002 70.959 80.4953 70.7821C80.3872 70.7231 80.2986 70.6494 80.2986 70.6248C80.2986 70.5953 80.4904 70.4872 80.7313 70.3742C82.6342 69.4945 84.1437 68.5165 85.7811 67.111C86.853 66.1871 88.0429 64.8995 88.9968 63.6217C89.3754 63.1205 90.4522 61.4889 90.5407 61.2874C90.5604 61.2481 90.6145 61.1449 90.6637 61.0662C91.0472 60.4323 92.0109 58.5107 92.0945 58.206C92.1486 58.0094 92.2174 58.0586 92.3846 58.4124C92.5026 58.6581 92.6501 58.8498 92.9058 59.1054C93.4368 59.6214 93.9925 59.8622 94.6808 59.8622C95.7183 59.8573 96.5591 59.3314 97.0361 58.3928C97.1983 58.0831 97.2623 57.7735 97.2623 57.3067C97.2623 56.7661 97.1836 56.427 96.9722 56.0535C96.8886 55.906 96.8197 55.7537 96.8197 55.7193C96.8197 55.6849 97.0459 55.4441 97.3262 55.1885C101.294 51.5518 104.107 48.2837 105.715 45.4628C105.936 45.0795 106.467 44.0131 106.595 43.6936C106.659 43.5462 106.727 43.3791 106.752 43.3251C106.885 43.0154 107.17 42.0424 107.303 41.4576C107.391 41.0447 107.391 39.2755 107.298 38.9758C106.934 37.7914 106.673 37.3294 105.96 36.6365C105.233 35.9288 104.436 35.516 103.212 35.2113C102.686 35.0786 100.753 35.0786 100.065 35.2064C98.875 35.4324 97.9261 35.7715 97.3262 36.1794C97.1098 36.3318 96.9722 36.3564 96.8837 36.2679C96.8296 36.2138 96.6231 36.1696 95.6642 36.0025C95.4479 35.9632 95.0742 35.8993 94.8284 35.8551C93.7319 35.6585 91.7946 35.3538 90.7964 35.2211C88.6723 34.9361 87.7233 34.828 85.9532 34.651C85.4418 34.6019 84.3797 34.5184 83.716 34.479C83.5291 34.4643 83.2636 34.4446 83.1259 34.4299C82.9932 34.4151 82.526 34.3955 82.0933 34.3807C81.6607 34.366 81.2673 34.3365 81.2132 34.3218C81.164 34.307 80.2347 34.2775 79.1481 34.2481C78.0663 34.2235 76.8568 34.194 76.4634 34.1842C76.07 34.1743 75.6963 34.1842 75.6275 34.2087ZM54.3615 37.8012C54.3812 37.8258 54.3615 37.8897 54.3271 37.9339C54.155 38.1354 53.8895 38.6416 53.7666 39.0003C53.6486 39.3542 53.6338 39.4672 53.6338 40.0815C53.6289 40.8531 53.683 41.1037 53.9829 41.7131C54.4156 42.5928 55.2417 43.2759 56.23 43.5708C56.643 43.6985 57.6854 43.6985 58.0984 43.5806C58.7327 43.3939 59.2588 43.0941 59.7309 42.6469C59.8489 42.5387 59.8981 42.5142 59.9128 42.5682C59.9226 42.6075 59.9472 42.9565 59.962 43.3496C59.9816 43.7428 60.0161 44.2588 60.0406 44.5045C60.0652 44.7453 60.1095 45.1876 60.139 45.4874C60.2668 46.7947 60.2914 47.0011 60.4635 48.1166C60.6356 49.2568 61.0535 51.3946 61.2109 51.9745C61.2453 52.0826 61.3141 52.3578 61.3731 52.5888C61.5944 53.4783 61.7567 54.0435 61.9878 54.7462C62.0517 54.9477 62.091 55.1246 62.0763 55.1394C62.0615 55.1541 61.9386 55.105 61.796 55.0264C61.3141 54.7659 57.9263 51.3061 56.3283 49.4485C55.3351 48.2936 54.2288 46.9077 53.7371 46.2C53.1175 45.3007 52.9454 45.0402 52.5816 44.4308C51.7801 43.0892 51.3425 42.0375 51.1655 41.0447C51.077 40.5336 51.077 40.2732 51.1606 39.8849C51.3966 38.789 52.1882 38.1747 53.7961 37.8405C54.3124 37.7373 54.3222 37.7373 54.3615 37.8012ZM101.348 37.8209C102.342 38.0027 103.192 38.3959 103.595 38.8578C104.038 39.3542 104.21 40.0471 104.102 40.8777C104.067 41.143 104.008 41.4576 103.969 41.5804C103.782 42.18 103.738 42.3028 103.679 42.4404C103.64 42.5191 103.576 42.6763 103.531 42.7845C103.295 43.3447 102.774 44.2981 102.258 45.0943C100.783 47.3844 98.4964 50.0824 95.2758 53.321C93.899 54.7069 93.4319 55.1197 93.3434 55.0264C93.3188 55.0018 93.4565 54.5054 93.6237 54.014C93.6925 53.8125 94.0908 52.2988 94.1891 51.8762C94.2334 51.66 94.3022 51.3602 94.3367 51.2127C94.7644 49.3698 95.148 46.8045 95.325 44.652C95.3397 44.4357 95.3594 44.2146 95.3643 44.1605C95.3692 44.1064 95.3938 43.7477 95.4135 43.3595C95.4381 42.9712 95.4774 42.6616 95.502 42.6616C95.5315 42.6616 95.6446 42.7451 95.7626 42.8434C96.0773 43.1236 96.4755 43.3447 96.9525 43.5118C97.3508 43.6494 97.4393 43.6641 98.049 43.6641C98.8062 43.6691 99.0373 43.615 99.7109 43.2808C100.33 42.9761 100.935 42.3864 101.23 41.8016C101.545 41.1774 101.638 40.799 101.638 40.1307C101.638 39.8358 101.614 39.5016 101.584 39.3935C101.56 39.2854 101.515 39.1183 101.491 39.02C101.437 38.8038 101.142 38.2337 100.975 38.0125C100.847 37.8454 100.817 37.7471 100.896 37.7471C100.921 37.7471 101.122 37.7815 101.348 37.8209Z" fill="#A7A7A7"/>
<defs>
<linearGradient id="paint0_linear_135_150" x1="123.995" y1="21.5684" x2="123.995" y2="1.78121" gradientUnits="userSpaceOnUse">
<stop stop-color="#B3B3B3"/>
<stop offset="1" stop-color="#696969" stop-opacity="0"/>
</linearGradient>
<linearGradient id="paint1_linear_135_150" x1="29.5747" y1="22.2915" x2="29.5747" y2="2.50583" gradientUnits="userSpaceOnUse">
<stop stop-color="#B3B3B3"/>
<stop offset="1" stop-color="#696969" stop-opacity="0"/>
</linearGradient>
<linearGradient id="paint2_linear_135_150" x1="131.12" y1="37.4946" x2="131.12" y2="9.32928" gradientUnits="userSpaceOnUse">
<stop stop-color="#B3B3B3"/>
<stop offset="1" stop-color="#696969" stop-opacity="0"/>
</linearGradient>
<linearGradient id="paint3_linear_135_150" x1="21.8446" y1="38.397" x2="21.8446" y2="10.094" gradientUnits="userSpaceOnUse">
<stop stop-color="#B3B3B3"/>
<stop offset="1" stop-color="#696969" stop-opacity="0"/>
</linearGradient>
<linearGradient id="paint4_linear_135_150" x1="137.869" y1="55.7061" x2="137.869" y2="19.3567" gradientUnits="userSpaceOnUse">
<stop stop-color="#B3B3B3"/>
<stop offset="1" stop-color="#696969" stop-opacity="0"/>
</linearGradient>
<linearGradient id="paint5_linear_135_150" x1="15.2094" y1="56.3574" x2="15.2094" y2="20.2337" gradientUnits="userSpaceOnUse">
<stop stop-color="#B3B3B3"/>
<stop offset="1" stop-color="#696969" stop-opacity="0"/>
</linearGradient>
<linearGradient id="paint6_linear_135_150" x1="141.781" y1="74.7534" x2="141.781" y2="39.0893" gradientUnits="userSpaceOnUse">
<stop stop-color="#B3B3B3"/>
<stop offset="1" stop-color="#696969" stop-opacity="0"/>
</linearGradient>
<linearGradient id="paint7_linear_135_150" x1="11.1197" y1="75.3975" x2="11.1197" y2="39.9002" gradientUnits="userSpaceOnUse">
<stop stop-color="#B3B3B3"/>
<stop offset="1" stop-color="#696969" stop-opacity="0"/>
</linearGradient>
<linearGradient id="paint8_linear_135_150" x1="138.779" y1="91.8755" x2="138.779" y2="59.8661" gradientUnits="userSpaceOnUse">
<stop stop-color="#B3B3B3"/>
<stop offset="1" stop-color="#696969" stop-opacity="0"/>
</linearGradient>
<linearGradient id="paint9_linear_135_150" x1="14.3585" y1="92.7085" x2="14.3585" y2="60.4626" gradientUnits="userSpaceOnUse">
<stop stop-color="#B3B3B3"/>
<stop offset="1" stop-color="#696969" stop-opacity="0"/>
</linearGradient>
<linearGradient id="paint10_linear_135_150" x1="128.813" y1="103.788" x2="128.813" y2="74.4563" gradientUnits="userSpaceOnUse">
<stop stop-color="#B3B3B3"/>
<stop offset="1" stop-color="#696969" stop-opacity="0"/>
</linearGradient>
<linearGradient id="paint11_linear_135_150" x1="24.7113" y1="104.574" x2="24.7113" y2="75.2381" gradientUnits="userSpaceOnUse">
<stop stop-color="#B3B3B3"/>
<stop offset="1" stop-color="#696969" stop-opacity="0"/>
</linearGradient>
<linearGradient id="paint12_linear_135_150" x1="113.734" y1="111.143" x2="113.734" y2="89.8138" gradientUnits="userSpaceOnUse">
<stop stop-color="#B3B3B3"/>
<stop offset="1" stop-color="#696969" stop-opacity="0"/>
</linearGradient>
<linearGradient id="paint13_linear_135_150" x1="39.7042" y1="111.93" x2="39.7042" y2="90.6288" gradientUnits="userSpaceOnUse">
<stop stop-color="#B3B3B3"/>
<stop offset="1" stop-color="#696969" stop-opacity="0"/>
</linearGradient>
<linearGradient id="paint14_linear_135_150" x1="76.7547" y1="124.45" x2="76.7547" y2="105.674" gradientUnits="userSpaceOnUse">
<stop stop-color="#B3B3B3"/>
<stop offset="1" stop-color="#696969" stop-opacity="0"/>
</linearGradient>
</defs>
</svg>
