<svg width="80" height="80" viewBox="0 0 80 80" fill="none" xmlns="http://www.w3.org/2000/svg">
<path fill-rule="evenodd" clip-rule="evenodd" d="M17.1711 17.172C17.9213 16.4221 18.9385 16.0008 19.9991 16.0008C21.0598 16.0008 22.077 16.4221 22.8271 17.172L39.9991 34.344L57.1711 17.172C57.5401 16.7899 57.9815 16.4852 58.4695 16.2756C58.9575 16.0659 59.4824 15.9556 60.0135 15.951C60.5447 15.9463 61.0714 16.0475 61.563 16.2487C62.0545 16.4498 62.5012 16.7468 62.8767 17.1224C63.2523 17.4979 63.5493 17.9446 63.7504 18.4361C63.9516 18.9277 64.0528 19.4544 64.0481 19.9856C64.0435 20.5167 63.9332 21.0416 63.7236 21.5296C63.5139 22.0176 63.2092 22.459 62.8271 22.828L45.6551 40L62.8271 57.172C63.5558 57.9264 63.959 58.9368 63.9498 59.9856C63.9407 61.0343 63.5201 62.0376 62.7784 62.7792C62.0368 63.5209 61.0335 63.9415 59.9847 63.9507C58.936 63.9598 57.9256 63.5566 57.1711 62.828L39.9991 45.656L22.8271 62.828C22.0727 63.5566 21.0623 63.9598 20.0135 63.9507C18.9648 63.9415 17.9615 63.5209 17.2199 62.7792C16.4782 62.0376 16.0576 61.0343 16.0484 59.9856C16.0393 58.9368 16.4425 57.9264 17.1711 57.172L34.3431 40L17.1711 22.828C16.4213 22.0778 16 21.0606 16 20C16 18.9393 16.4213 17.9221 17.1711 17.172V17.172Z" fill="white"/>
</svg>
